PathFileType	4	(X/Y/Z)	D:\TRACE\v60_Jaco2_6-2-23\JustBodyDRS_Motion2_3-v60.trc
DataRate	CameraRate	NumFrames	NumMarkers	Units	OrigDataRate	OrigDataStartFrame	OrigNumFrames
100.00	100.00	      31	9	mm	100.00	4272	      6834
Frame#	Time	front left toe			Front right toe			aft left toe			aft right toe			Arm			FL body			FR body			AL Body			AR Body			
		X1	Y1	Z1	X2	Y2	Z2	X3	Y3	Z3	X4	Y4	Z4	X5	Y5	Z5	X6	Y6	Z6	X7	Y7	Z7	X8	Y8	Z8	X9	Y9	Z9	

4272	42.710	-130.50540	161.06340	-203.16228	232.78123	33.89389	-217.07144	-62.83472	-18.70093	451.52234	301.11948	105.96017	389.47546	-67.71775	1232.61255	-266.52744	-40.57302	602.68762	-321.68353	118.38569	604.20966	-339.54993	65.75462	515.98657	614.59314	221.61856	512.22168	599.01849	
4273	42.720	-132.80394	164.61180	-202.39594	231.70796	33.46445	-217.20805	-63.94618	-18.47878	451.38815	298.99725	109.53583	389.32169	-68.04974	1232.43872	-266.55478	-41.15974	602.08081	-322.07419	118.32188	604.06152	-340.14270	63.72218	515.99261	613.94232	220.04515	511.77011	598.84668	
4274	42.730	-135.41508	165.68907	-201.34760	230.51491	33.17594	-217.33783	-65.29015	-17.99734	451.27136	298.03784	110.12389	389.81009	-68.73251	1232.33398	-267.24792	-41.58053	601.98816	-322.48285	117.64543	603.74329	-340.59180	62.53183	515.71960	614.00043	218.25667	511.43036	597.67725	
4275	42.740	-138.26166	163.91457	-199.85034	229.61668	32.75784	-217.60471	-66.38177	-17.29664	451.15344	296.12103	107.49182	390.48685	-68.70280	1232.14246	-267.73657	-42.53843	602.11737	-323.11679	117.10286	603.54498	-340.83826	60.64904	516.24585	613.51184	216.70053	511.58719	597.53784	
4276	42.750	-140.81683	160.34430	-198.33780	228.60498	32.66473	-217.67105	-67.61214	-16.57476	450.98132	294.20792	103.40813	392.18887	-68.39973	1231.85437	-268.55850	-43.14798	602.27826	-323.42093	116.22920	603.37341	-341.09836	58.99771	516.57166	613.26111	215.33577	511.92746	597.91382	
4277	42.760	-142.77974	155.13484	-196.95795	227.26041	32.26065	-218.04716	-68.58263	-16.21341	450.72226	292.16678	98.05692	393.34106	-67.88568	1231.98706	-270.06671	-43.98422	602.32428	-323.77124	115.05169	603.02338	-341.13068	57.61685	516.70502	613.01898	213.91986	512.09686	597.51300	
4278	42.770	-144.26782	148.23308	-195.64189	226.60143	32.10051	-218.10091	-69.88039	-15.71492	450.54852	289.63177	91.86593	394.30853	-67.52080	1231.95752	-271.01825	-44.75561	601.91083	-324.47537	114.90682	602.70001	-341.66254	56.05367	516.81836	612.97101	211.99216	512.12030	597.18408	
4279	42.780	-145.82202	140.17496	-194.19818	225.20091	31.49802	-218.46002	-70.85944	-15.21716	450.44843	287.54163	84.41643	395.24115	-67.48653	1231.81213	-272.05435	-45.11344	601.34686	-324.72141	114.17260	602.16113	-342.01794	54.29245	516.98315	612.40417	210.72011	512.14459	597.10059	
4280	42.790	-148.03197	131.13925	-192.74620	224.40123	31.20433	-218.43581	-72.12851	-14.65234	450.21637	285.75278	76.19415	395.88589	-67.35820	1231.84106	-272.69650	-45.53385	601.32025	-325.15948	113.71377	601.66644	-342.31000	53.01540	517.82831	611.99402	209.40071	512.05756	596.20758	
4281	42.800	-150.70343	121.04922	-191.51242	223.07370	30.67459	-218.67606	-73.28840	-13.83819	450.06390	283.76672	67.07412	396.65585	-67.23691	1231.88000	-273.26468	-46.78557	601.53540	-325.82874	112.70557	601.34308	-342.92691	51.49480	518.39227	611.58484	207.72603	512.46313	595.89270	
4282	42.810	-153.19984	110.42616	-190.25606	222.23663	30.31536	-218.80623	-74.59174	-12.95909	449.78336	282.03421	57.51239	397.54776	-66.33138	1231.79858	-273.67981	-47.29629	601.34131	-326.25070	112.01984	600.98676	-343.40439	50.33032	518.70001	611.28564	206.79028	512.70227	595.55707	
4283	42.820	-155.67967	99.35704	-189.02051	220.98022	29.78473	-219.00935	-76.14629	-11.97144	449.56366	279.34061	46.99389	398.05997	-66.10631	1231.91089	-275.26324	-48.46178	601.26465	-326.97406	111.10194	600.59082	-343.88934	48.94258	519.31207	610.63568	205.47409	513.07776	595.18823	
4284	42.830	-157.46596	88.53416	-188.13884	219.72987	29.40707	-219.18773	-76.73814	-12.12309	449.50323	276.15359	36.44815	398.55740	-65.27893	1231.78882	-276.75058	-49.11991	601.11823	-327.42163	110.52677	600.07562	-344.34045	47.86805	519.46167	610.20404	204.04018	512.45325	594.30524	
4285	42.840	-159.04352	78.43533	-187.77531	218.69133	28.94241	-219.48746	-77.72336	-11.41004	449.34363	274.97678	27.80493	397.63702	-65.30623	1231.17395	-277.63535	-49.65435	601.07996	-327.84543	109.67606	599.85046	-345.12698	46.94292	519.48151	609.75861	203.12674	512.41193	593.97083	
4286	42.850	-160.88351	68.75508	-187.88078	217.73123	28.58383	-219.80803	-78.12853	-10.94349	449.16714	273.74786	18.94574	396.52823	-64.42716	1231.61157	-279.05533	-50.80602	601.08978	-328.78922	108.74970	599.32776	-345.67563	45.63329	519.85327	608.80347	202.00044	512.62042	593.72266	
4287	42.860	-162.50536	59.28393	-188.26869	216.56462	28.25409	-220.09148	-79.92609	-9.69324	448.93765	272.19202	10.54760	394.87869	-63.95294	1231.57532	-280.00754	-51.20836	600.73401	-329.41647	108.18606	598.86530	-346.06772	44.49739	520.02197	608.08899	201.21985	512.34357	592.83539	
4288	42.870	-164.43883	50.65855	-188.93835	215.16748	27.64984	-220.58250	-81.24161	-8.86366	448.61829	271.34741	2.99182	393.01559	-62.84042	1231.78918	-280.39102	-52.14904	600.75818	-330.41946	107.23226	598.76709	-347.92062	43.27003	519.93591	607.52802	200.05470	512.24841	592.17657	
4289	42.880	-165.33987	43.51165	-190.29955	214.62581	27.28073	-220.75867	-82.34973	-8.32093	448.34363	270.24020	-0.03002	390.69006	-63.20539	1231.38098	-281.71680	-52.62822	600.75671	-330.92792	106.66528	598.04010	-347.85858	42.12743	519.93988	606.73206	198.80638	511.68008	591.28650	
4290	42.890	-166.47963	37.64856	-191.75339	213.07930	26.41820	-221.31599	-83.37589	-7.56413	448.15009	270.41507	-0.21890	390.46637	-62.73967	1231.25537	-282.47632	-53.45118	600.17731	-332.08194	105.88110	597.46368	-348.66751	41.21941	520.15613	605.61896	197.27498	512.08289	590.69385	
4291	42.900	-167.33545	32.46596	-193.40691	212.23634	25.82085	-221.30939	-84.75762	-6.37608	447.96280	269.46805	0.27837	389.97174	-62.08293	1231.19641	-283.67087	-54.03012	599.32721	-332.92224	105.31966	596.68353	-349.43585	40.38676	521.82483	605.37408	196.08885	513.38696	589.90063	
4292	42.910	-170.11293	31.32049	-195.08533	210.90150	25.29651	-221.66054	-86.06911	-5.11894	447.58429	268.01413	1.94604	390.12415	-62.30730	1231.35413	-285.40021	-54.76875	598.72559	-333.96082	104.86028	595.79779	-350.27414	38.44838	523.00067	604.45258	194.22818	514.04486	588.85596	
4293	42.920	-171.64981	27.86866	-195.55708	209.72198	25.15965	-222.16309	-85.08614	-5.34282	447.45377	266.20889	1.89751	390.64966	-63.04607	1230.87024	-288.03958	-55.08720	600.06256	-334.40735	104.13907	595.73938	-350.42020	37.71735	524.56293	603.80438	193.83685	515.05304	588.55688	
4294	42.930	-173.18568	28.70254	-194.71887	207.23543	28.11146	-221.77083	-87.54125	-1.60593	446.90747	265.06134	1.70807	390.04907	-63.41605	1230.88110	-291.37524	-55.26180	601.22729	-334.89841	104.27448	596.97766	-351.33588	36.64901	524.84955	603.26593	192.81667	515.66840	588.17670	
4295	42.940	-173.55316	27.86964	-195.48203	201.24051	31.41496	-218.72818	-87.51638	2.47344	447.62738	264.54404	2.37681	389.93600	-62.77501	1230.71094	-293.19235	-56.04082	602.11926	-335.84598	103.43218	598.05511	-351.85840	35.23083	524.95953	602.19391	191.84198	515.87402	587.38483	
4296	42.950	-174.60802	28.01362	-196.27332	197.66031	40.02628	-216.71016	-84.70512	9.82284	448.30457	262.93903	3.04493	389.45901	-61.65942	1231.86853	-293.82214	-56.15678	602.15112	-336.60538	103.48054	598.29291	-352.66003	34.61278	525.88489	602.04626	190.13332	516.61108	586.17072	
4297	42.960	-175.94980	27.18525	-196.71295	195.99455	49.09006	-215.47630	-82.72129	21.29563	446.54260	262.16553	3.90351	389.15591	-59.82934	1233.78223	-293.64523	-57.01936	601.89655	-337.95264	102.20486	597.36346	-353.57425	32.94899	527.20148	600.71118	188.65587	517.55383	585.75031	
4298	42.970	-177.08478	26.87216	-196.67447	196.59993	60.76832	-217.13106	-81.20813	33.16751	444.89749	260.76709	4.14051	388.82553	-59.25180	1235.12549	-293.81201	-57.23809	601.45380	-338.54248	102.15496	597.00110	-354.56934	32.23113	528.20642	599.98059	187.97957	518.29041	585.22534	
4299	42.980	-177.83749	26.42225	-196.82640	199.39789	74.09276	-219.88174	-82.72263	46.25384	443.64273	260.23944	4.92971	389.17047	-59.93402	1234.93738	-294.39648	-58.21793	601.09705	-339.34219	101.55422	596.72235	-354.98065	31.55144	528.39758	599.31049	186.96062	518.34668	584.47412	
4300	42.990	-179.11325	25.99892	-197.11084	201.79889	87.43786	-223.08330	-85.52513	58.48831	441.38724	259.35330	5.17941	388.55902	-60.69826	1233.71509	-295.76575	-58.81967	600.65161	-339.95670	100.52370	596.33881	-355.95920	30.98248	527.98798	598.60498	187.44661	518.45563	583.65619	
4301	43.000	-180.32646	25.54388	-197.05653	204.62144	100.84772	-225.98180	-89.97723	72.27916	437.81927	258.28070	5.46450	388.20776	-61.84969	1232.16602	-297.95853	-59.23677	600.29742	-340.32288	100.40143	595.80615	-356.40866	30.79058	528.08630	597.82465	187.00159	518.25647	583.20032	
4302	43.010	-181.12361	24.56771	-197.61496	207.08218	113.68446	-228.38185	-92.01282	84.06171	434.47110	257.44659	6.09040	388.03970	-62.60886	1230.81836	-299.65253	-59.69981	599.54913	-341.33228	99.76475	594.84521	-357.25299	29.83367	528.40955	597.48126	186.23193	518.49945	582.29834	
